<?xml version="1.0" encoding="UTF-8"?>
<svg version="1.1" xmlns="http://www.w3.org/2000/svg" width="256" height="256">
<path d="M0 0 C8.25811948 -0.11596193 16.51589759 -0.20474854 24.77463055 -0.25906086 C28.60973093 -0.2851312 32.44427343 -0.32048034 36.27905273 -0.37719727 C39.98141252 -0.43161164 43.68323649 -0.46143983 47.38596535 -0.47438622 C48.79699958 -0.48360947 50.20800518 -0.50162116 51.61881065 -0.52865028 C53.59803933 -0.56505405 55.5778097 -0.56704333 57.55737305 -0.56762695 C58.68322311 -0.57873001 59.80907318 -0.58983307 60.96903992 -0.60127258 C64.9958845 0.19756052 66.46659744 1.83658773 69 5 C70.80164413 11.63143627 69.39416375 16.00223068 66.75 22.1875 C66.43675781 22.96802734 66.12351562 23.74855469 65.80078125 24.55273438 C61.17150281 35.87621836 61.17150281 35.87621836 55.20303345 39.16020203 C50.81180273 40.83414241 46.23475655 40.48305994 41.59765625 40.390625 C40.51995468 40.38496521 39.44225311 40.37930542 38.33189392 40.37347412 C34.90830032 40.3511816 31.48577436 40.30099671 28.0625 40.25 C25.73373913 40.22992587 23.40496177 40.2116767 21.07617188 40.1953125 C15.38375369 40.15134022 9.69195314 40.0844991 4 40 C3.690625 40.94875 3.38125 41.8975 3.0625 42.875 C2 46 2 46 1 48 C18.49 48 35.98 48 54 48 C53.19525189 52.82848868 52.60225453 55.26751704 50.4375 59.375 C49.98246094 60.24898437 49.52742188 61.12296875 49.05859375 62.0234375 C48.53458984 63.00183594 48.53458984 63.00183594 48 64 C39.74188052 64.11596193 31.48410241 64.20474854 23.22536945 64.25906086 C19.39026907 64.2851312 15.55572657 64.32048034 11.72094727 64.37719727 C8.01858748 64.43161164 4.31676351 64.46143983 0.61403465 64.47438622 C-0.79699958 64.48360947 -2.20800518 64.50162116 -3.61881065 64.52865028 C-5.59803933 64.56505405 -7.5778097 64.56704333 -9.55737305 64.56762695 C-10.68322311 64.57873001 -11.80907318 64.58983307 -12.96903992 64.60127258 C-16.96395972 63.80877262 -18.45542673 62.10224419 -21 59 C-23.1923962 51.44268132 -19.41653855 44.55379602 -16 38 C-15.55785156 37.071875 -15.11570313 36.14375 -14.66015625 35.1875 C-10.97142069 27.47367002 -10.97142069 27.47367002 -8 25 C-5.08274166 24.02758055 -3.11196561 23.84832181 -0.06958008 23.79467773 C0.93123093 23.77473251 1.93204193 23.75478729 2.96318054 23.73423767 C4.04138565 23.71752518 5.11959076 23.70081268 6.23046875 23.68359375 C7.33602615 23.66281265 8.44158356 23.64203156 9.5806427 23.62062073 C13.1161979 23.55517668 16.65182806 23.49626397 20.1875 23.4375 C22.58269008 23.3943099 24.97787255 23.35069546 27.37304688 23.30664062 C33.24861842 23.19950052 39.12426472 23.09772443 45 23 C45.99 20.69 46.98 18.38 48 16 C31.17 16 14.34 16 -3 16 C-4.125 9.25 -4.125 9.25 -2.0625 4.625 C-1.68222656 3.75101562 -1.30195313 2.87703125 -0.91015625 1.9765625 C-0.60980469 1.32429688 -0.30945313 0.67203125 0 0 Z " fill="#FCFDFD" transform="translate(180,96)"/>
<path d="M0 0 C1.95145683 0.00022659 1.95145683 0.00022659 3.94233704 0.00045776 C5.35242874 0.01066954 6.76251886 0.02110151 8.17260742 0.03173828 C9.62277532 0.0354712 11.07294574 0.03831685 12.52311707 0.04031372 C16.32895951 0.04792829 20.13464787 0.06755789 23.94042969 0.08972168 C27.82834794 0.11022715 31.71629123 0.11932547 35.60424805 0.12939453 C43.22476079 0.150806 50.84514684 0.18491544 58.46557617 0.22705078 C57.98698376 1.83138887 57.50768059 3.43551494 57.02807617 5.03955078 C56.76124023 5.93287109 56.4944043 6.82619141 56.21948242 7.74658203 C55.66169744 9.58178133 55.07213042 11.40738804 54.46557617 13.22705078 C53.80557617 13.22705078 53.14557617 13.22705078 52.46557617 13.22705078 C52.46557617 13.88705078 52.46557617 14.54705078 52.46557617 15.22705078 C49.93370739 16.49298517 48.11582826 16.38623272 45.28149414 16.43237305 C44.2005246 16.45231827 43.11955505 16.47226349 42.00582886 16.49281311 C40.83496735 16.5095256 39.66410583 16.5262381 38.45776367 16.54345703 C37.26200714 16.56423813 36.06625061 16.58501923 34.83425903 16.60643005 C31.00309153 16.67197367 27.17185379 16.73083296 23.34057617 16.78955078 C20.7481209 16.83273141 18.15567282 16.87634555 15.56323242 16.92041016 C9.1974219 17.02765997 2.83154105 17.12941738 -3.53442383 17.22705078 C-3.53442383 19.20705078 -3.53442383 21.18705078 -3.53442383 23.22705078 C-2.3687085 23.25210693 -1.20299316 23.27716309 -0.00195312 23.30297852 C4.31993748 23.39709769 8.64166907 23.49730747 12.96337891 23.59936523 C14.83443484 23.642697 16.70552986 23.68437335 18.57666016 23.72436523 C21.26501248 23.78211027 23.95316832 23.84579259 26.64135742 23.91064453 C27.47895096 23.92735703 28.31654449 23.94406952 29.17951965 23.96128845 C32.50230905 24.04619139 35.29309635 24.16955751 38.46557617 25.22705078 C38.46557617 25.88705078 38.46557617 26.54705078 38.46557617 27.22705078 C39.12557617 27.22705078 39.78557617 27.22705078 40.46557617 27.22705078 C43.07586134 32.61076393 43.20240133 36.65145212 41.59057617 42.28564453 C38.64135089 50.67735462 35.04531386 56.92537942 27.77807617 62.16455078 C23.53209703 64.11540606 19.89258589 64.3499048 15.22827148 64.34057617 C13.96726624 64.34050064 12.70626099 64.34042511 11.40704346 64.34034729 C10.03592896 64.33524107 8.66481487 64.33002508 7.29370117 64.32470703 C5.88694306 64.32284106 4.48018429 64.321418 3.07342529 64.32041931 C-0.6222311 64.31660822 -4.31784796 64.30678998 -8.01348877 64.29571533 C-11.78738877 64.28547092 -15.56129517 64.2809152 -19.33520508 64.27587891 C-26.73496265 64.26516642 -34.13468769 64.24810694 -41.53442383 64.22705078 C-41.86442383 63.56705078 -42.19442383 62.90705078 -42.53442383 62.22705078 C-41.38989258 59.22314453 -41.38989258 59.22314453 -39.72192383 55.66455078 C-39.17922852 54.48763672 -38.6365332 53.31072266 -38.07739258 52.09814453 C-36.53442383 49.22705078 -36.53442383 49.22705078 -34.53442383 48.22705078 C-32.83898791 48.1365401 -31.13998405 48.10950206 -29.44213867 48.11352539 C-27.85071548 48.11363869 -27.85071548 48.11363869 -26.22714233 48.11375427 C-24.50366074 48.1214962 -24.50366074 48.1214962 -22.74536133 48.12939453 C-21.57180084 48.13080948 -20.39824036 48.13222443 -19.18911743 48.13368225 C-15.42919397 48.13929389 -11.66932938 48.1518484 -7.90942383 48.16455078 C-5.36515385 48.16956428 -2.82088295 48.17412745 -0.27661133 48.17822266 C5.9708047 48.18926711 12.21818623 48.2060166 18.46557617 48.22705078 C18.77495117 47.27830078 19.08432617 46.32955078 19.40307617 45.35205078 C20.46557617 42.22705078 20.46557617 42.22705078 21.46557617 40.22705078 C19.73271362 40.25061646 19.73271362 40.25061646 17.96484375 40.2746582 C13.6691793 40.32905447 9.37354517 40.36343612 5.07763672 40.3918457 C3.22016272 40.40691024 1.36272416 40.42736587 -0.49462891 40.45336914 C-3.16813922 40.48985537 -5.84117827 40.50680048 -8.51489258 40.52001953 C-9.34216354 40.53550339 -10.16943451 40.55098724 -11.02177429 40.56694031 C-15.71776712 40.56830376 -18.68831277 40.21847049 -22.53442383 37.22705078 C-25.85405764 33.90741697 -26.25167899 30.84367144 -26.53442383 26.22705078 C-25.88015122 23.244818 -24.80058728 20.52739157 -23.59692383 17.72705078 C-23.28062012 16.97673584 -22.96431641 16.2264209 -22.63842773 15.45336914 C-19.64552512 8.76873214 -16.00594374 4.35851581 -9.3183136 1.17068481 C-6.05828587 0.0656579 -3.44090797 -0.01336275 0 0 Z " fill="#FDFDFD" transform="translate(116.534423828125,95.77294921875)"/>
<path d="M0 0 C1.80130119 0.00022659 1.80130119 0.00022659 3.63899231 0.00045776 C5.56892281 0.01594162 5.56892281 0.01594162 7.5378418 0.03173828 C8.87590829 0.03547166 10.21397752 0.0383171 11.55204773 0.04031372 C15.06197753 0.04792462 18.57174 0.06755096 22.081604 0.08972168 C25.66790504 0.11023514 29.25423329 0.11932716 32.84057617 0.12939453 C39.8686394 0.15079949 46.89659192 0.18490447 53.92456055 0.22705078 C53.4608307 1.830995 52.99249353 3.43360763 52.5222168 5.03564453 C52.26190674 5.92823975 52.00159668 6.82083496 51.73339844 7.74047852 C50.81984404 10.54897581 49.68582823 12.85316826 47.92456055 15.22705078 C45.52810311 16.4252795 43.96794028 16.38332393 41.29125977 16.43237305 C39.84999222 16.46229088 39.84999222 16.46229088 38.37960815 16.49281311 C36.8201799 16.51788185 36.8201799 16.51788185 35.22924805 16.54345703 C34.16666779 16.56423813 33.10408752 16.58501923 32.00930786 16.60643005 C28.60612617 16.67195339 25.20286565 16.73082351 21.79956055 16.78955078 C19.49616689 16.83273335 17.19278129 16.87634755 14.8894043 16.92041016 C9.23454034 17.0276376 3.57959752 17.1293988 -2.07543945 17.22705078 C-2.37200439 18.30607666 -2.66856934 19.38510254 -2.97412109 20.49682617 C-3.7566851 23.1474126 -4.4982287 25.4528938 -5.6965332 27.91064453 C-5.99237305 28.52875 -6.28821289 29.14685547 -6.59301758 29.78369141 C-6.8965918 30.404375 -7.20016602 31.02505859 -7.51293945 31.66455078 C-10.00149598 36.78616066 -12.06441878 41.86432897 -14.07543945 47.22705078 C1.76456055 47.55705078 17.60456055 47.88705078 33.92456055 48.22705078 C29.12456055 62.62705078 29.12456055 62.62705078 25.92456055 64.22705078 C24.20037181 64.34301925 22.471824 64.39664147 20.74389648 64.41992188 C19.66227234 64.4359848 18.58064819 64.45204773 17.46624756 64.46859741 C12.51241636 64.51300791 7.55872004 64.55411823 2.60473633 64.57714844 C-0.00831002 64.5937052 -2.62131113 64.62099107 -5.23413086 64.65917969 C-8.99918142 64.71393886 -12.76316931 64.73582313 -16.52856445 64.75048828 C-18.27728851 64.78449234 -18.27728851 64.78449234 -20.06134033 64.81918335 C-29.10973362 64.79561592 -29.10973362 64.79561592 -32.76977539 61.84667969 C-35.07747922 59.22473325 -36.32933254 57.62598226 -37.07543945 54.22705078 C-36.54808135 49.01551192 -34.81158323 44.48674448 -32.88793945 39.66455078 C-32.42037231 38.47853271 -32.42037231 38.47853271 -31.94335938 37.26855469 C-29.23110261 30.46415728 -26.23898304 23.83409756 -23.07543945 17.22705078 C-22.75188477 16.45876953 -22.42833008 15.69048828 -22.0949707 14.89892578 C-19.40613286 8.74630119 -14.92429798 4.06676692 -8.8240509 1.15090942 C-5.71852809 0.10708634 -3.27282077 -0.0137803 0 0 Z " fill="#FCFDFD" transform="translate(41.075439453125,95.77294921875)"/>
<path d="M0 0 C21.12 0 42.24 0 64 0 C61 10 61 10 60 13 C59.34 13 58.68 13 58 13 C58 13.66 58 14.32 58 15 C55.46813122 16.26593439 53.65025209 16.15918194 50.81591797 16.20532227 C49.73494843 16.22526749 48.65397888 16.24521271 47.54025269 16.26576233 C46.36939117 16.28247482 45.19852966 16.29918732 43.9921875 16.31640625 C42.79643097 16.33718735 41.60067444 16.35796844 40.36868286 16.37937927 C36.53751536 16.44492289 32.70627762 16.50378218 28.875 16.5625 C26.28254473 16.60568063 23.69009664 16.64929477 21.09765625 16.69335938 C14.73184573 16.80060919 8.36596487 16.9023666 2 17 C2 18.98 2 20.96 2 23 C3.16571533 23.02505615 4.33143066 23.0501123 5.5324707 23.07592773 C9.85436131 23.17004691 14.1760929 23.27025669 18.49780273 23.37231445 C20.36885866 23.41564622 22.23995369 23.45732257 24.11108398 23.49731445 C26.79943631 23.55505949 29.48759215 23.61874181 32.17578125 23.68359375 C33.01337479 23.70030624 33.85096832 23.71701874 34.71394348 23.73423767 C38.03673288 23.81914061 40.82752018 23.94250673 44 25 C44 25.66 44 26.32 44 27 C44.66 27 45.32 27 46 27 C48.61028516 32.38371315 48.73682516 36.42440134 47.125 42.05859375 C44.17577472 50.45030384 40.57973769 56.69832864 33.3125 61.9375 C29.06652086 63.88835528 25.42700972 64.12285402 20.76269531 64.11352539 C19.50169006 64.11344986 18.24068481 64.11337433 16.94146729 64.11329651 C15.57035279 64.10819028 14.19923869 64.1029743 12.828125 64.09765625 C11.42136689 64.09579028 10.01460812 64.09436722 8.60784912 64.09336853 C4.91219273 64.08955744 1.21657587 64.0797392 -2.47906494 64.06866455 C-6.25296494 64.05842014 -10.02687135 64.05386442 -13.80078125 64.04882812 C-21.20053882 64.03811564 -28.60026386 64.02105616 -36 64 C-36.33 63.34 -36.66 62.68 -37 62 C-35.85546875 58.99609375 -35.85546875 58.99609375 -34.1875 55.4375 C-33.64480469 54.26058594 -33.10210937 53.08367187 -32.54296875 51.87109375 C-31 49 -31 49 -29 48 C-27.30456409 47.90948931 -25.60556022 47.88245128 -23.90771484 47.88647461 C-22.31629166 47.88658791 -22.31629166 47.88658791 -20.69271851 47.88670349 C-18.96923691 47.89444542 -18.96923691 47.89444542 -17.2109375 47.90234375 C-16.03737701 47.9037587 -14.86381653 47.90517365 -13.6546936 47.90663147 C-9.89477015 47.91224311 -6.13490555 47.92479762 -2.375 47.9375 C0.16926998 47.9425135 2.71354088 47.94707667 5.2578125 47.95117188 C11.50522853 47.96221632 17.75261006 47.97896582 24 48 C24.309375 47.05125 24.61875 46.1025 24.9375 45.125 C26 42 26 42 27 40 C25.26713745 40.02356567 25.26713745 40.02356567 23.49926758 40.04760742 C19.20360313 40.10200369 14.907969 40.13638533 10.61206055 40.16479492 C8.75458655 40.17985946 6.89714799 40.20031509 5.03979492 40.22631836 C2.36628461 40.26280459 -0.30675444 40.2797497 -2.98046875 40.29296875 C-3.80773972 40.30845261 -4.63501068 40.32393646 -5.48735046 40.33988953 C-10.18334329 40.34125298 -13.15388894 39.99141971 -17 37 C-20.31963382 33.68036618 -20.71725516 30.61662066 -21 26 C-20.34573034 23.01778062 -19.26627364 20.30028543 -18.0625 17.5 C-17.74619629 16.75041016 -17.42989258 16.00082031 -17.10400391 15.22851562 C-14.57439576 9.5829745 -11.65823552 4.92896897 -6 2 C-3.2578125 1.34375 -3.2578125 1.34375 -1 1 C-3 4 -3 4 -5.3125 5.3125 C-12.44747686 9.79260175 -15.65651292 17.13331651 -18 25 C-18.39643261 29.15246365 -17.72345157 32.02708237 -15.1875 35.4375 C-10.71056478 38.63531087 -5.62302062 38.20658916 -0.296875 38.31640625 C0.54091492 38.33718735 1.37870483 38.35796844 2.24188232 38.37937927 C4.91117356 38.4446255 7.58056098 38.50364358 10.25 38.5625 C12.06250984 38.60570894 13.87501005 38.64932399 15.6875 38.69335938 C20.12490209 38.80028129 24.56240068 38.90161866 29 39 C28.21302675 42.41021743 27.12880057 45.68885166 26 49 C24.99521858 49.00213753 24.99521858 49.00213753 23.97013855 49.00431824 C17.01084211 49.02397383 10.05242767 49.07815856 3.09350586 49.15258789 C0.49493737 49.17581405 -2.10372587 49.19017435 -4.70239258 49.19555664 C-8.43370942 49.20481196 -12.16352624 49.24573128 -15.89453125 49.29296875 C-17.06023148 49.2890361 -18.2259317 49.28510345 -19.42695618 49.28105164 C-20.50785019 49.30069473 -21.5887442 49.32033783 -22.70239258 49.34057617 C-23.65503494 49.34723801 -24.60767731 49.35389984 -25.58918762 49.36076355 C-28.21433349 49.7902674 -28.21433349 49.7902674 -29.72563171 52.30293274 C-31.26215747 55.53336573 -31.26215747 55.53336573 -32.6875 58.8125 C-33.120625 59.864375 -33.55375 60.91625 -34 62 C-26.22622019 62.07647933 -18.45253853 62.12877939 -10.6784668 62.16479492 C-8.03747939 62.17981981 -5.39651668 62.2002455 -2.75561523 62.22631836 C1.05491251 62.26297878 4.86510844 62.27979006 8.67578125 62.29296875 C10.4280175 62.31619453 10.4280175 62.31619453 12.21565247 62.33988953 C20.53811331 62.34157279 28.37247015 61.46801592 35.8125 57.5 C41.57002473 50.91997174 45.50667851 42.80021876 46 34 C45.34977182 30.60436394 44.67615596 29.5402145 42.0012207 27.40307617 C37.82166066 25.4491242 34.10560847 25.52175346 29.54296875 25.48828125 C28.64000565 25.47033005 27.73704254 25.45237885 26.80671692 25.43388367 C23.93369156 25.37986979 21.06083149 25.34591363 18.1875 25.3125 C16.23500309 25.27931904 14.28252796 25.24482866 12.33007812 25.20898438 C7.55350484 25.1241484 2.77697982 25.05729464 -2 25 C-1.34 22.36 -0.68 19.72 0 17 C-1.65 16.67 -3.3 16.34 -5 16 C-5 15.34 -5 14.68 -5 14 C15.13 13.67 35.26 13.34 56 13 C57.98 9.04 59.96 5.08 62 1 C41.54 1 21.08 1 0 1 C0 0.67 0 0.34 0 0 Z " fill="#D9DCE3" transform="translate(111,96)"/>
<path d="M0 0 C8.25811948 -0.11596193 16.51589759 -0.20474854 24.77463055 -0.25906086 C28.60973093 -0.2851312 32.44427343 -0.32048034 36.27905273 -0.37719727 C39.98141252 -0.43161164 43.68323649 -0.46143983 47.38596535 -0.47438622 C48.79699958 -0.48360947 50.20800518 -0.50162116 51.61881065 -0.52865028 C53.59803933 -0.56505405 55.5778097 -0.56704333 57.55737305 -0.56762695 C58.68322311 -0.57873001 59.80907318 -0.58983307 60.96903992 -0.60127258 C64.9958845 0.19756052 66.46659744 1.83658773 69 5 C70.80164413 11.63143627 69.39416375 16.00223068 66.75 22.1875 C66.43675781 22.96802734 66.12351562 23.74855469 65.80078125 24.55273438 C61.17150281 35.87621836 61.17150281 35.87621836 55.20303345 39.16020203 C50.81180273 40.83414241 46.23475655 40.48305994 41.59765625 40.390625 C40.51995468 40.38496521 39.44225311 40.37930542 38.33189392 40.37347412 C34.90830032 40.3511816 31.48577436 40.30099671 28.0625 40.25 C25.73373913 40.22992587 23.40496177 40.2116767 21.07617188 40.1953125 C15.38375369 40.15134022 9.69195314 40.0844991 4 40 C3.690625 40.94875 3.38125 41.8975 3.0625 42.875 C2 46 2 46 1 48 C18.49 48 35.98 48 54 48 C53.19525189 52.82848868 52.60225453 55.26751704 50.4375 59.375 C49.98246094 60.24898437 49.52742188 61.12296875 49.05859375 62.0234375 C48.53458984 63.00183594 48.53458984 63.00183594 48 64 C39.74188052 64.11596193 31.48410241 64.20474854 23.22536945 64.25906086 C19.39026907 64.2851312 15.55572657 64.32048034 11.72094727 64.37719727 C8.01858748 64.43161164 4.31676351 64.46143983 0.61403465 64.47438622 C-0.79699958 64.48360947 -2.20800518 64.50162116 -3.61881065 64.52865028 C-5.59803933 64.56505405 -7.5778097 64.56704333 -9.55737305 64.56762695 C-10.68322311 64.57873001 -11.80907318 64.58983307 -12.96903992 64.60127258 C-16.96395972 63.80877262 -18.45542673 62.10224419 -21 59 C-23.19633573 51.42910153 -19.37346211 44.58628317 -16 38 C-15.38227313 36.61011455 -14.775702 35.21513554 -14.1875 33.8125 C-13.795625 32.884375 -13.40375 31.95625 -13 31 C-12.34 31 -11.68 31 -11 31 C-13.15749481 37.9137902 -15.75972032 44.51944064 -19 51 C-19.49214071 54.69105531 -19.33060878 56.47087998 -17.34106445 59.6550293 C-12.83975269 63.85959692 -5.90747669 62.7242812 -0.16796875 62.70703125 C1.19254259 62.72015435 2.55303447 62.73546047 3.91349792 62.75285339 C7.48263865 62.79264649 11.05126909 62.80288999 14.62060547 62.80688477 C18.26740951 62.81622721 21.91391506 62.85364751 25.56054688 62.88867188 C32.70698722 62.95318891 39.85326643 62.9864771 47 63 C47.19335938 62.40832031 47.38671875 61.81664062 47.5859375 61.20703125 C47.84632813 60.41683594 48.10671875 59.62664062 48.375 58.8125 C48.75785156 57.64654297 48.75785156 57.64654297 49.1484375 56.45703125 C50.01991102 53.94255032 51.0116485 51.47087874 52 49 C34.51 49 17.02 49 -1 49 C-0.25386143 45.26930717 0.53173403 42.42595393 2 39 C2.89416626 38.99786247 2.89416626 38.99786247 3.80639648 38.99568176 C10.03659497 38.97592512 16.26582155 38.921524 22.49560547 38.84741211 C24.81747453 38.82428077 27.13944779 38.80984788 29.46142578 38.80444336 C32.80827406 38.79511866 36.1534943 38.75404804 39.5 38.70703125 C41.04578735 38.71293022 41.04578735 38.71293022 42.62280273 38.71894836 C49.2724392 38.5857193 53.93950426 37.48022033 59 33 C60.70733827 30.90699438 60.70733827 30.90699438 61.53125 28.6015625 C61.86640625 27.79203125 62.2015625 26.9825 62.546875 26.1484375 C63.01867187 24.89933594 63.01867187 24.89933594 63.5 23.625 C63.84546875 22.8 64.1909375 21.975 64.546875 21.125 C66.47945839 16.29354152 67.58241762 12.28239233 67 7 C65.13291495 4.63502561 63.67938569 3.33969285 61 2 C59.12080452 1.90889219 57.23833208 1.88247163 55.35693359 1.88647461 C54.17586029 1.88655014 52.99478699 1.88662567 51.77792358 1.88670349 C49.85757797 1.89444542 49.85757797 1.89444542 47.8984375 1.90234375 C45.93833237 1.90446617 45.93833237 1.90446617 43.93862915 1.90663147 C40.46323742 1.91045106 36.98788743 1.92027658 33.51251221 1.93133545 C29.96668055 1.94156157 26.42084215 1.94613167 22.875 1.95117188 C15.91664951 1.96189934 8.95832676 1.97896908 2 2 C1.505 3.051875 1.01 4.10375 0.5 5.1875 C0.2215625 5.77917969 -0.056875 6.37085937 -0.34375 6.98046875 C-1.25753706 9.4386262 -1.25753706 9.4386262 -1 14 C17.48 14.33 35.96 14.66 55 15 C51 18 51 18 49 18 C48.01 21.465 48.01 21.465 47 25 C46.37217117 25.00586624 45.74434235 25.01173248 45.0974884 25.01777649 C38.5597318 25.08173774 32.0224662 25.16616483 25.48510742 25.26245117 C23.04572017 25.29569417 20.60625612 25.32372801 18.16674805 25.34643555 C14.65900968 25.37999217 11.15197475 25.43231049 7.64453125 25.48828125 C6.00989677 25.49786613 6.00989677 25.49786613 4.34223938 25.50764465 C-2.82416213 25.5911359 -2.82416213 25.5911359 -9 29 C-9.66 29.33 -10.32 29.66 -11 30 C-10.05146468 27.6286617 -9.42710833 26.26962849 -7.23712158 24.88711548 C-4.6691447 23.86880156 -2.71522837 23.72295801 0.04394531 23.68115234 C1.04468079 23.66128265 2.04541626 23.64141296 3.07647705 23.62094116 C4.14952087 23.60938995 5.2225647 23.59783875 6.328125 23.5859375 C7.43226746 23.56657135 8.53640991 23.5472052 9.67401123 23.5272522 C13.19926233 23.46749108 16.72454615 23.42108436 20.25 23.375 C22.64063921 23.33681708 25.03126471 23.29776517 27.421875 23.2578125 C33.28112826 23.16179233 39.14046415 23.07673452 45 23 C45.99 20.69 46.98 18.38 48 16 C31.17 16 14.34 16 -3 16 C-4.125 9.25 -4.125 9.25 -2.0625 4.625 C-1.68222656 3.75101562 -1.30195313 2.87703125 -0.91015625 1.9765625 C-0.60980469 1.32429688 -0.30945313 0.67203125 0 0 Z " fill="#DCDFE7" transform="translate(180,96)"/>
<path d="M0 0 C1.80130119 0.00022659 1.80130119 0.00022659 3.63899231 0.00045776 C5.56892281 0.01594162 5.56892281 0.01594162 7.5378418 0.03173828 C8.87590829 0.03547166 10.21397752 0.0383171 11.55204773 0.04031372 C15.06197753 0.04792462 18.57174 0.06755096 22.081604 0.08972168 C25.66790504 0.11023514 29.25423329 0.11932716 32.84057617 0.12939453 C39.8686394 0.15079949 46.89659192 0.18490447 53.92456055 0.22705078 C53.4608307 1.830995 52.99249353 3.43360763 52.5222168 5.03564453 C52.26190674 5.92823975 52.00159668 6.82083496 51.73339844 7.74047852 C50.81984404 10.54897581 49.68582823 12.85316826 47.92456055 15.22705078 C45.52810311 16.4252795 43.96794028 16.38332393 41.29125977 16.43237305 C39.84999222 16.46229088 39.84999222 16.46229088 38.37960815 16.49281311 C36.8201799 16.51788185 36.8201799 16.51788185 35.22924805 16.54345703 C34.16666779 16.56423813 33.10408752 16.58501923 32.00930786 16.60643005 C28.60612617 16.67195339 25.20286565 16.73082351 21.79956055 16.78955078 C19.49616689 16.83273335 17.19278129 16.87634755 14.8894043 16.92041016 C9.23454034 17.0276376 3.57959752 17.1293988 -2.07543945 17.22705078 C-2.37200439 18.30607666 -2.66856934 19.38510254 -2.97412109 20.49682617 C-3.7566851 23.1474126 -4.4982287 25.4528938 -5.6965332 27.91064453 C-5.99237305 28.52875 -6.28821289 29.14685547 -6.59301758 29.78369141 C-6.8965918 30.404375 -7.20016602 31.02505859 -7.51293945 31.66455078 C-10.00149598 36.78616066 -12.06441878 41.86432897 -14.07543945 47.22705078 C1.76456055 47.55705078 17.60456055 47.88705078 33.92456055 48.22705078 C29.12456055 62.62705078 29.12456055 62.62705078 25.92456055 64.22705078 C24.20037181 64.34301925 22.471824 64.39664147 20.74389648 64.41992188 C19.66227234 64.4359848 18.58064819 64.45204773 17.46624756 64.46859741 C12.51241636 64.51300791 7.55872004 64.55411823 2.60473633 64.57714844 C-0.00831002 64.5937052 -2.62131113 64.62099107 -5.23413086 64.65917969 C-8.99918142 64.71393886 -12.76316931 64.73582313 -16.52856445 64.75048828 C-18.27728851 64.78449234 -18.27728851 64.78449234 -20.06134033 64.81918335 C-29.10973362 64.79561592 -29.10973362 64.79561592 -32.76977539 61.84667969 C-35.07747922 59.22473325 -36.32933254 57.62598226 -37.07543945 54.22705078 C-36.54808135 49.01551192 -34.81158323 44.48674448 -32.88793945 39.66455078 C-32.42037231 38.47853271 -32.42037231 38.47853271 -31.94335938 37.26855469 C-29.23110261 30.46415728 -26.23898304 23.83409756 -23.07543945 17.22705078 C-22.75188477 16.45876953 -22.42833008 15.69048828 -22.0949707 14.89892578 C-19.40613286 8.74630119 -14.92429798 4.06676692 -8.8240509 1.15090942 C-5.71852809 0.10708634 -3.27282077 -0.0137803 0 0 Z M-17.13793945 9.28955078 C-21.11827709 15.32425623 -23.70968041 22.0786358 -26.12231445 28.86767578 C-27.74071438 32.87387887 -29.69328621 36.74585052 -31.65112305 40.59716797 C-34.08207053 45.58555126 -36.01831235 50.90674992 -34.4387207 56.46923828 C-32.2862938 59.81390164 -30.79102769 61.8214396 -27.07543945 63.22705078 C-24.64154211 63.53412704 -24.64154211 63.53412704 -22.00317383 63.50170898 C-20.49140564 63.516007 -20.49140564 63.516007 -18.94909668 63.53059387 C-17.86672729 63.52968246 -16.78435791 63.52877106 -15.66918945 63.52783203 C-13.99391174 63.53425972 -13.99391174 63.53425972 -12.28479004 63.54081726 C-9.92448606 63.54655786 -7.56416439 63.54706282 -5.20385742 63.54272461 C-1.58913088 63.53956276 2.02477882 63.5630347 5.6394043 63.58837891 C7.93237201 63.59065169 10.22534193 63.59135549 12.51831055 63.59033203 C13.60067993 63.59954178 14.68304932 63.60875153 15.79821777 63.61824036 C16.80606323 63.61201157 17.81390869 63.60578278 18.85229492 63.59936523 C19.73735718 63.59999466 20.62241943 63.60062408 21.53430176 63.60127258 C24.46113772 63.14304361 25.78217669 62.2489684 27.92456055 60.22705078 C29.9675059 56.21412241 30.92456055 53.75868157 30.92456055 49.22705078 C15.08456055 49.22705078 -0.75543945 49.22705078 -17.07543945 49.22705078 C-11.01293945 35.47705078 -11.01293945 35.47705078 -9.08691406 31.15771484 C-8.59715088 30.03075195 -8.1073877 28.90378906 -7.6027832 27.74267578 C-7.09481201 26.59057617 -6.58684082 25.43847656 -6.06347656 24.25146484 C-5.0901598 21.27211025 -4.74874557 20.03184795 -6.07543945 17.22705078 C-6.73543945 16.89705078 -7.39543945 16.56705078 -8.07543945 16.22705078 C-7.41811325 16.21896393 -6.76078705 16.21087708 -6.08354187 16.20254517 C0.74577487 16.11661954 7.57479733 16.0171213 14.40380859 15.90966797 C16.95388861 15.871338 19.50402343 15.8364923 22.05419922 15.80517578 C25.71561298 15.75961279 29.37664805 15.7016034 33.0378418 15.64111328 C34.18166824 15.62956207 35.32549469 15.61801086 36.50398254 15.60610962 C37.5648558 15.58623993 38.62572906 15.56637024 39.71875 15.54589844 C40.65362747 15.53257477 41.58850494 15.5192511 42.55171204 15.50552368 C45.19007662 15.3778835 45.19007662 15.3778835 47.92456055 13.22705078 C49.15000278 11.15585351 49.15000278 11.15585351 50.11206055 8.78955078 C50.62833008 7.61585937 50.62833008 7.61585937 51.1550293 6.41845703 C52.09022262 4.14239117 52.09022262 4.14239117 51.92456055 1.22705078 C44.20160736 1.1762911 36.4786973 1.141292 28.75561523 1.1171875 C26.12897128 1.10713739 23.50233848 1.09349519 20.87573242 1.07617188 C17.09770957 1.0518805 13.31983482 1.04055759 9.54174805 1.03173828 C7.78361282 1.01625443 7.78361282 1.01625443 5.98995972 1.00045776 C-3.43675959 0.99916401 -10.22316865 2.37477997 -17.13793945 9.28955078 Z " fill="#D9DCE4" transform="translate(41.075439453125,95.77294921875)"/>
<path d="M0 0 C0.66 0 1.32 0 2 0 C-0.15749481 6.9137902 -2.75972032 13.51944064 -6 20 C-6.49214071 23.69105531 -6.33060878 25.47087998 -4.34106445 28.6550293 C0.16024731 32.85959692 7.09252331 31.7242812 12.83203125 31.70703125 C14.19254259 31.72015435 15.55303447 31.73546047 16.91349792 31.75285339 C20.48263865 31.79264649 24.05126909 31.80288999 27.62060547 31.80688477 C31.26740951 31.81622721 34.91391506 31.85364751 38.56054688 31.88867188 C45.70698722 31.95318891 52.85326643 31.9864771 60 32 C60.19335938 31.40832031 60.38671875 30.81664062 60.5859375 30.20703125 C60.84632813 29.41683594 61.10671875 28.62664062 61.375 27.8125 C61.75785156 26.64654297 61.75785156 26.64654297 62.1484375 25.45703125 C63.01991102 22.94255032 64.0116485 20.47087874 65 18 C47.51 18 30.02 18 12 18 C13 13 13 13 15 8 C30.84 8 46.68 8 63 8 C63 8.33 63 8.66 63 9 C47.82 9 32.64 9 17 9 C16.34 10.98 15.68 12.96 15 15 C14.67 15.66 14.34 16.32 14 17 C31.49 17 48.98 17 67 17 C66.19525189 21.82848868 65.60225453 24.26751704 63.4375 28.375 C62.98246094 29.24898437 62.52742188 30.12296875 62.05859375 31.0234375 C61.53458984 32.00183594 61.53458984 32.00183594 61 33 C52.74188052 33.11596193 44.48410241 33.20474854 36.22536945 33.25906086 C32.39026907 33.2851312 28.55572657 33.32048034 24.72094727 33.37719727 C21.01858748 33.43161164 17.31676351 33.46143983 13.61403465 33.47438622 C12.20300042 33.48360947 10.79199482 33.50162116 9.38118935 33.52865028 C7.40196067 33.56505405 5.4221903 33.56704333 3.44262695 33.56762695 C2.31677689 33.57873001 1.19092682 33.58983307 0.03096008 33.60127258 C-3.96395972 32.80877262 -5.45542673 31.10224419 -8 28 C-10.19633573 20.42910153 -6.37346211 13.58628317 -3 7 C-2.38227313 5.61011455 -1.775702 4.21513554 -1.1875 2.8125 C-0.795625 1.884375 -0.40375 0.95625 0 0 Z " fill="#CFD1DD" transform="translate(167,127)"/>
<path d="M0 0 C18.48 0 36.96 0 56 0 C52 3 52 3 50 3 C49.34 5.31 48.68 7.62 48 10 C47.37217117 10.00586624 46.74434235 10.01173248 46.0974884 10.01777649 C39.5597318 10.08173774 33.0224662 10.16616483 26.48510742 10.26245117 C24.04572017 10.29569417 21.60625612 10.32372801 19.16674805 10.34643555 C15.65900968 10.37999217 12.15197475 10.43231049 8.64453125 10.48828125 C7.00989677 10.49786613 7.00989677 10.49786613 5.34223938 10.50764465 C-1.82416213 10.5911359 -1.82416213 10.5911359 -8 14 C-8.99 14.495 -8.99 14.495 -10 15 C-9.05146468 12.6286617 -8.42710833 11.26962849 -6.23712158 9.88711548 C-3.6691447 8.86880156 -1.71522837 8.72295801 1.04394531 8.68115234 C2.04468079 8.66128265 3.04541626 8.64141296 4.07647705 8.62094116 C5.14952087 8.60938995 6.2225647 8.59783875 7.328125 8.5859375 C8.43226746 8.56657135 9.53640991 8.5472052 10.67401123 8.5272522 C14.19926233 8.46749108 17.72454615 8.42108436 21.25 8.375 C23.64063921 8.33681708 26.03126471 8.29776517 28.421875 8.2578125 C34.28112826 8.16179233 40.14046415 8.07673452 46 8 C46.99 5.69 47.98 3.38 49 1 C32.83 1 16.66 1 0 1 C0 0.67 0 0.34 0 0 Z " fill="#D5D7DF" transform="translate(179,111)"/>
<path d="M0 0 C0.99 0.33 1.98 0.66 3 1 C2.46890625 1.37511719 1.9378125 1.75023438 1.390625 2.13671875 C0.33101562 2.90435547 0.33101562 2.90435547 -0.75 3.6875 C-1.44609375 4.18636719 -2.1421875 4.68523437 -2.859375 5.19921875 C-9.01029043 10.37362023 -13.45265237 18.35319693 -14.234375 26.41796875 C-13.96393667 29.69396037 -13.14215504 31.80882598 -11.1875 34.4375 C-9.04579142 35.96729184 -7.58470444 36.63075651 -5 37 C-5 37.66 -5 38.32 -5 39 C-9.15084635 38.80693738 -10.724977 38.25668813 -13.8125 35.375 C-16.48767981 32.24097058 -16.80965945 29.04680551 -17 25 C-16.33927642 22.01909415 -15.26559001 19.30087087 -14.0625 16.5 C-13.74837158 15.75041016 -13.43424316 15.00082031 -13.1105957 14.22851562 C-10.19629211 7.69084957 -6.47382364 3.23691182 0 0 Z " fill="#DDDFE7" transform="translate(107,97)"/>
<path d="M0 0 C0.495 1.485 0.495 1.485 1 3 C-2.24988509 3.97854084 -5.11728983 4.09161558 -8.50292969 4.02172852 C-9.60376892 4.00163223 -10.70460815 3.98153595 -11.83880615 3.96083069 C-13.61242523 3.92027809 -13.61242523 3.92027809 -15.421875 3.87890625 C-16.63699768 3.85529526 -17.85212036 3.83168427 -19.10406494 3.80735779 C-22.98616351 3.7307682 -26.86806026 3.64672307 -30.75 3.5625 C-33.38150053 3.50927464 -36.01301092 3.45653427 -38.64453125 3.40429688 C-45.09647912 3.27515932 -51.54827701 3.13989974 -58 3 C-58 3.66 -58 4.32 -58 5 C-59.32 4.67 -60.64 4.34 -62 4 C-62 3.34 -62 2.68 -62 2 C-60.85701195 1.9845388 -60.85701195 1.9845388 -59.69093323 1.96876526 C-52.5244026 1.8709559 -45.35796173 1.7684656 -38.19157505 1.66066074 C-34.5068981 1.60539835 -30.82221327 1.55197321 -27.13745117 1.50268555 C-23.58422159 1.45509068 -20.03109125 1.40274993 -16.47797966 1.34705925 C-15.11957189 1.3266135 -13.76113688 1.30790415 -12.40268135 1.29092598 C-10.50610295 1.26693123 -8.60961201 1.23629668 -6.71313477 1.20532227 C-5.09097801 1.18200584 -5.09097801 1.18200584 -3.43605042 1.15821838 C-1.05248949 1.27241981 -1.05248949 1.27241981 0 0 Z " fill="#E1E4ED" transform="translate(168,108)"/>
<path d="M0 0 C0.66 0 1.32 0 2 0 C-0.15749481 6.9137902 -2.75972032 13.51944064 -6 20 C-6.50095023 22.87306228 -6.50095023 22.87306228 -6 26 C-3.58333229 28.75041666 -3.58333229 28.75041666 -1 31 C-1 31.66 -1 32.32 -1 33 C-4.65316671 31.75023244 -5.78065836 31.32901247 -8 28 C-9.42028833 19.98658375 -6.58116379 13.99179598 -3 7 C-2.38227313 5.61011455 -1.775702 4.21513554 -1.1875 2.8125 C-0.795625 1.884375 -0.40375 0.95625 0 0 Z " fill="#DCDEE4" transform="translate(167,127)"/>
<path d="M0 0 C0.66 0.99 1.32 1.98 2 3 C4.51213618 5.84708767 6.18515827 7.45502261 10 8 C10 8.66 10 9.32 10 10 C7.02838827 9.8617855 4.78486522 9.65801832 2.453125 7.703125 C1.0625 6.125 1.0625 6.125 -1 3 C-0.67 2.01 -0.34 1.02 0 0 Z " fill="#E0E3EA" transform="translate(92,126)"/>
<path d="M0 0 C0.99 0.33 1.98 0.66 3 1 C1.92289822 5.30840713 0.96052484 8.63576723 -2 12 C-2.33 11.34 -2.66 10.68 -3 10 C-2.36474424 8.32110979 -1.69313908 6.65583225 -1 5 C-0.63128912 3.34080104 -0.28718326 1.6752357 0 0 Z " fill="#DFE2E8" transform="translate(36,112)"/>
<path d="M0 0 C0 0.66 0 1.32 0 2 C-5.17578125 5.22265625 -5.17578125 5.22265625 -7 6 C-7.99 5.67 -8.98 5.34 -10 5 C-8.71186658 4.16121545 -7.41936744 3.32913217 -6.125 2.5 C-5.40570313 2.0359375 -4.68640625 1.571875 -3.9453125 1.09375 C-2 0 -2 0 0 0 Z " fill="#DFE2EA" transform="translate(240,130)"/>
</svg>
